# xmcd
#
# Track frame offsets:
#	150
#	13379
#	36228
#	59482
#	71465
#	85658
#	99118
#	133299
#	155679
#	171428
#	190282
#	204557
#	227388
#	242004
#	261361
#	282070
#	299838
#
# Disc length: 4287 seconds
#
# Revision: 0
# Processed by: cddbd v1.5.2PL0 Copyright (c) Steve Scherf et al.
# Submitted via: dBpowerAMP V4.0
#
DISCID=fe10bd11
DTITLE=Ry Cooder - My Name Is Buddy
DYEAR=2007
DGENRE=Country
TTITLE0=Suitcase In My Hand
TTITLE1=Cat and Mouse
TTITLE2=Strike!
TTITLE3=J. Edgar
TTITLE4=Footprints In The Snow
TTITLE5=Sundown Town
TTITLE6=Green Dog
TTITLE7=The Dying Truck Driver
TTITLE8=Christmas In Southgate
TTITLE9=Hank Williams
TTITLE10=Red Cat Till I Die
TTITLE11=Three Chords And The Truth
TTITLE12=My Name Is Buddy
TTITLE13=One Cat, One Vote, One Beer
TTITLE14=Cardboard Avenue
TTITLE15=Farm Girl
TTITLE16=There's A Bright Side Somewhere
EXTD=
EXTT0=
EXTT1=
EXTT2=
EXTT3=
EXTT4=
EXTT5=
EXTT6=
EXTT7=
EXTT8=
EXTT9=
EXTT10=
EXTT11=
EXTT12=
EXTT13=
EXTT14=
EXTT15=
EXTT16=
PLAYORDER=
